 <svg  version="1.0" xmlns="http://www.w3.org/2000/svg"  width="900.000000pt" height="900.000000pt" viewBox="0 0 900.000000 900.000000"  preserveAspectRatio="xMidYMid meet">  <g transform="translate(0.000000,900.000000) scale(0.100000,-0.100000)" fill="#a80505" stroke="none"> <path d="M5245 7712 c-72 -24 -92 -42 -106 -94 -15 -56 -8 -78 27 -78 33 0 150 62 181 97 24 25 26 34 17 71 -8 27 -45 29 -119 4z"/> <path d="M5503 7421 c-29 -4 -58 -12 -65 -19 -16 -16 -18 -120 -5 -189 7 -35 19 -61 38 -79 26 -25 29 -25 66 -13 44 14 131 76 162 115 29 37 26 63 -11 115 -59 82 -65 84 -185 70z"/> <path d="M2896 7347 c-21 -17 -27 -29 -22 -43 3 -11 -2 -35 -14 -57 -23 -42 -26 -90 -7 -104 6 -6 41 -25 77 -44 58 -30 127 -79 258 -184 33 -27 53 -35 83 -35 34 0 39 3 45 28 9 34 20 42 62 42 29 0 33 3 30 22 -2 16 -15 27 -46 38 -46 16 -57 26 -181 154 -47 48 -93 92 -104 97 -18 10 -18 11 4 35 21 22 21 24 3 30 -10 4 -30 16 -43 26 -35 27 -108 24 -145 -5z"/> <path d="M3100 7290 c0 -5 12 -16 28 -24 30 -16 90 -77 115 -118 21 -33 37 -36 37 -8 0 41 -76 130 -111 130 -9 0 -22 7 -29 15 -14 17 -40 20 -40 5z"/> <path d="M2223 6533 c-7 -2 -13 -15 -13 -28 0 -13 -10 -30 -26 -40 -15 -9 -23 -12 -19 -6 4 7 1 18 -5 26 -15 18 -56 20 -67 3 -8 -13 -54 -42 -56 -36 -22 45 -40 55 -83 44 -20 -5 -23 -10 -17 -39 3 -17 12 -37 19 -43 8 -6 14 -17 14 -23 0 -7 5 -22 11 -33 11 -21 12 -21 25 -3 13 17 14 17 13 -11 0 -16 -4 -50 -8 -77 -6 -34 -4 -55 6 -73 7 -15 13 -34 13 -43 0 -9 6 -28 14 -43 8 -14 17 -45 21 -67 4 -23 11 -43 16 -47 5 -3 9 -18 9 -33 0 -15 7 -36 15 -47 8 -10 15 -28 15 -39 0 -11 7 -33 15 -49 8 -15 15 -36 15 -45 0 -9 7 -29 15 -45 8 -15 15 -38 15 -50 0 -11 7 -34 15 -50 8 -15 15 -35 15 -43 0 -8 6 -29 13 -46 8 -18 22 -59 31 -92 10 -33 24 -75 32 -93 8 -18 14 -40 14 -48 0 -9 6 -30 13 -47 8 -18 22 -59 32 -92 9 -33 24 -80 31 -105 23 -73 64 -231 75 -285 6 -27 15 -54 20 -59 5 -6 9 -20 9 -32 0 -12 7 -44 14 -70 8 -27 22 -74 30 -104 47 -171 140 -471 157 -502 5 -10 9 -25 9 -34 0 -9 6 -30 13 -47 20 -46 38 -98 46 -132 4 -17 12 -39 18 -50 20 -40 42 -90 48 -112 3 -13 11 -23 16 -23 5 0 9 -10 9 -22 0 -13 7 -36 15 -52 8 -15 15 -36 15 -45 0 -9 6 -25 14 -36 7 -11 16 -33 18 -50 7 -36 25 -89 44 -128 8 -16 14 -36 14 -46 0 -9 7 -26 15 -37 8 -10 15 -30 15 -42 0 -13 6 -38 13 -55 8 -18 22 -59 31 -92 10 -33 24 -73 32 -90 7 -16 16 -42 20 -58 3 -15 10 -30 15 -33 5 -3 9 -15 9 -28 0 -12 7 -31 15 -42 8 -10 15 -28 15 -40 0 -11 7 -29 15 -40 8 -10 15 -28 15 -39 0 -11 9 -38 20 -60 11 -22 19 -48 20 -57 0 -22 16 -23 24 -2 11 28 6 93 -7 101 -23 15 -45 59 -52 106 -4 26 -11 50 -16 53 -5 3 -9 20 -9 38 0 19 -7 39 -15 46 -8 7 -15 21 -15 31 0 10 -6 33 -14 51 -7 18 -21 58 -31 88 -10 30 -22 66 -28 80 -16 41 -67 182 -79 220 -5 19 -14 40 -18 45 -4 6 -11 25 -15 43 -4 18 -13 45 -21 60 -8 15 -14 34 -14 43 0 8 -4 19 -8 25 -5 5 -19 41 -32 79 -12 39 -26 75 -30 80 -5 6 -11 28 -15 50 -4 22 -13 51 -20 65 -7 14 -20 59 -30 100 -11 41 -22 80 -26 85 -5 6 -13 29 -18 50 -6 22 -18 65 -27 95 -9 30 -22 78 -29 105 -7 28 -18 64 -23 80 -30 90 -42 132 -42 148 0 18 -20 91 -41 152 -14 38 -29 93 -35 125 -3 14 -18 68 -34 120 -16 52 -37 122 -46 155 -10 33 -23 71 -30 85 -7 14 -22 54 -35 90 -12 36 -26 69 -31 75 -4 5 -8 16 -8 25 0 8 -6 27 -14 42 -8 15 -17 41 -21 59 -4 19 -11 40 -15 49 -13 27 -32 84 -44 132 -6 25 -14 50 -19 54 -4 4 -7 19 -7 33 0 15 -6 35 -13 46 -7 11 -21 47 -31 80 -22 72 -55 163 -67 187 -5 10 -9 26 -9 37 0 23 -38 128 -57 156 -15 22 -18 125 -4 110 13 -14 87 -192 101 -245 7 -25 22 -65 32 -90 31 -70 36 -84 41 -105 3 -11 15 -45 27 -75 12 -30 32 -91 45 -135 27 -91 42 -136 61 -183 8 -18 14 -40 14 -50 0 -21 88 -231 107 -253 7 -8 13 -23 13 -32 0 -9 5 -19 11 -23 8 -5 10 3 6 27 -21 126 -67 280 -195 654 -126 366 -144 418 -160 455 -8 19 -21 60 -28 90 -12 49 -11 56 3 68 26 19 42 14 55 -15 6 -16 16 -41 23 -58 22 -51 41 -106 75 -215 17 -58 38 -120 46 -138 8 -18 14 -40 14 -48 0 -9 6 -30 14 -47 8 -18 16 -43 19 -57 3 -14 22 -70 42 -125 20 -55 40 -113 45 -130 5 -16 14 -39 18 -50 18 -42 34 -92 43 -135 5 -24 14 -49 19 -54 6 -6 10 -28 10 -51 0 -22 6 -51 13 -66 8 -14 17 -49 20 -78 3 -29 11 -58 16 -65 5 -6 12 -32 16 -59 4 -26 11 -50 15 -52 5 -3 12 -30 15 -60 4 -31 11 -58 16 -61 5 -3 9 -21 9 -41 0 -19 6 -49 14 -66 8 -18 17 -58 21 -89 3 -32 11 -60 16 -63 5 -4 9 -23 9 -44 0 -21 6 -61 14 -87 22 -77 43 -158 76 -304 31 -134 48 -204 70 -290 6 -25 15 -65 21 -90 5 -25 14 -52 19 -61 5 -9 12 -34 16 -55 4 -22 17 -63 30 -93 13 -29 24 -59 24 -65 0 -6 6 -23 14 -38 8 -15 17 -41 21 -59 4 -19 11 -40 15 -49 7 -14 17 -38 54 -137 16 -44 53 -139 65 -168 21 -50 40 -102 46 -122 4 -13 10 -23 15 -23 19 0 41 -120 29 -160 -2 -10 3 -15 16 -15 14 0 19 6 18 20 -2 28 34 195 55 255 3 8 11 38 17 65 7 28 24 93 39 145 26 90 47 172 66 250 5 19 14 55 21 80 24 92 41 166 46 210 3 25 12 54 19 65 16 22 19 75 5 75 -12 0 -21 -26 -21 -59 0 -15 -3 -31 -6 -34 -7 -7 -39 -92 -54 -142 -4 -16 -13 -43 -18 -60 -20 -56 -63 -217 -87 -325 -10 -41 -23 -95 -30 -120 -7 -25 -21 -79 -31 -120 -20 -90 -30 -110 -50 -110 -11 0 -15 8 -13 28 2 27 -17 108 -30 127 -9 13 -35 93 -57 173 -9 34 -21 65 -25 68 -5 3 -9 14 -9 25 0 11 -8 34 -17 52 -9 18 -20 48 -24 67 -10 51 -34 117 -73 203 -8 17 -25 68 -37 112 -12 44 -30 109 -41 145 -24 80 -36 131 -48 192 -5 27 -12 53 -16 60 -8 12 -24 67 -64 213 -12 44 -24 87 -28 95 -8 21 -31 114 -44 180 -6 30 -14 60 -18 65 -4 6 -11 30 -15 55 -4 25 -11 50 -16 55 -4 6 -13 35 -18 65 -22 123 -33 167 -47 197 -7 17 -14 44 -14 60 0 15 -12 71 -26 123 -14 52 -34 127 -44 165 -18 75 -67 235 -131 430 -22 66 -47 145 -56 175 -9 30 -27 87 -41 125 -72 212 -75 230 -35 239 16 5 30 2 38 -6 13 -15 47 -105 64 -168 36 -142 56 -209 96 -340 25 -80 51 -158 57 -175 5 -16 13 -50 17 -75 4 -25 12 -61 18 -80 6 -19 23 -82 36 -140 14 -58 33 -132 42 -165 18 -61 39 -154 55 -236 4 -25 14 -66 20 -90 27 -100 43 -156 55 -194 7 -22 21 -69 30 -105 9 -36 23 -81 30 -100 8 -19 21 -62 30 -95 9 -33 21 -70 26 -83 5 -12 47 -138 94 -280 47 -141 89 -265 95 -274 5 -10 10 -26 10 -36 0 -10 7 -27 15 -38 8 -10 15 -30 15 -44 0 -14 7 -36 15 -50 8 -14 14 -34 15 -45 0 -11 7 -33 15 -48 8 -15 17 -43 21 -63 3 -19 10 -37 15 -40 5 -3 9 -20 9 -37 1 -18 7 -43 15 -57 8 -14 14 -36 15 -48 0 -13 6 -36 14 -50 8 -15 18 -38 24 -52 9 -22 11 -23 17 -7 4 10 3 28 -3 40 -6 12 -14 40 -17 62 -4 22 -11 45 -15 50 -13 16 -15 112 -3 127 17 21 4 90 -19 96 -24 6 -53 63 -63 122 -4 25 -16 63 -26 84 -11 22 -19 49 -19 60 0 12 -7 29 -15 40 -8 10 -17 39 -21 65 -4 25 -13 55 -20 66 -8 11 -14 30 -14 43 0 13 -5 33 -12 45 -6 12 -15 38 -19 57 -4 19 -17 60 -28 90 -12 30 -21 65 -21 77 0 12 -4 24 -9 27 -5 3 -12 18 -16 33 -3 15 -15 46 -26 70 -10 23 -19 53 -19 67 0 14 -4 28 -10 31 -5 3 -10 15 -10 25 0 11 -7 40 -16 66 -8 25 -16 60 -16 77 0 18 -4 37 -9 42 -14 18 -58 148 -53 157 3 4 -4 36 -15 70 -18 58 -45 159 -74 285 -7 28 -16 55 -20 59 -4 4 -7 18 -7 31 0 13 -6 36 -14 51 -8 15 -19 50 -24 77 -6 28 -18 75 -28 105 -9 30 -18 82 -19 115 0 33 -6 70 -13 82 -7 12 -12 31 -12 41 0 11 -11 40 -25 63 -14 24 -25 53 -25 64 0 11 -13 63 -29 115 -39 125 -52 178 -55 220 -1 19 -9 45 -16 58 -13 20 -13 24 0 32 18 11 40 -5 40 -30 0 -10 6 -23 14 -29 7 -6 17 -39 20 -73 4 -34 12 -70 17 -79 6 -11 5 -20 -1 -24 -17 -10 -11 -21 16 -34 22 -10 24 -14 14 -27 -10 -12 -10 -21 3 -47 18 -37 64 -186 73 -237 4 -19 11 -40 16 -47 5 -6 11 -34 12 -62 1 -27 7 -56 14 -63 17 -21 44 -107 37 -119 -4 -5 3 -30 15 -55 11 -25 25 -67 30 -92 13 -58 33 -129 47 -162 6 -14 16 -43 21 -65 32 -126 47 -172 59 -186 7 -8 13 -28 13 -42 0 -31 24 -37 39 -9 7 13 -2 58 -34 166 -24 82 -48 153 -54 159 -6 6 -11 26 -11 45 0 18 -5 43 -12 55 -7 12 -15 47 -19 77 -4 30 -17 91 -29 135 -12 44 -24 91 -27 105 -3 14 -9 30 -13 35 -5 6 -12 28 -16 50 -4 22 -14 56 -22 75 -18 43 -63 212 -69 262 -3 21 -11 42 -19 49 -8 6 -14 20 -14 31 0 10 -7 32 -15 47 -13 26 -13 30 1 42 14 11 14 13 0 21 -10 6 -16 23 -16 48 0 21 -4 42 -10 45 -5 3 -10 14 -10 22 0 34 38 -23 45 -68 4 -24 11 -48 14 -54 4 -5 18 -46 31 -90 12 -44 26 -84 30 -90 4 -5 11 -28 14 -50 7 -40 13 -61 46 -165 16 -50 35 -118 60 -210 17 -64 51 -184 74 -265 44 -148 77 -269 102 -370 13 -55 29 -113 35 -130 6 -16 22 -73 36 -125 13 -52 29 -108 33 -125 5 -16 16 -52 24 -80 8 -27 24 -84 36 -125 12 -41 26 -93 32 -115 6 -22 15 -44 19 -49 5 -6 9 -18 9 -27 0 -9 9 -45 21 -80 13 -38 24 -106 27 -168 5 -68 11 -106 19 -108 13 -5 15 1 32 112 6 39 25 104 42 145 50 121 61 155 111 325 11 39 27 87 34 108 8 20 14 50 14 65 1 15 7 38 15 52 8 14 14 37 15 52 0 15 5 30 10 33 6 3 10 16 10 28 0 12 14 60 31 107 17 47 35 104 40 127 4 23 12 50 17 60 15 28 32 87 32 108 0 10 13 55 29 99 17 45 34 104 39 131 6 28 15 64 20 80 17 51 59 197 77 265 19 71 37 123 66 186 10 23 19 53 19 67 0 14 5 29 10 32 6 3 10 19 10 34 0 15 7 36 15 47 8 10 15 27 15 36 0 9 6 23 14 31 8 7 16 25 18 38 2 17 8 23 21 21 16 -3 18 1 12 26 -4 22 -2 31 10 36 11 4 14 12 10 26 -5 15 -2 20 12 20 11 0 28 6 39 14 22 17 44 4 44 -26 0 -10 5 -16 10 -13 6 3 10 17 10 31 0 28 3 29 31 12 18 -11 23 -10 40 11 26 32 24 77 -5 105 -21 22 -32 24 -125 25 l-101 0 -24 -37 c-13 -21 -26 -58 -28 -82 -3 -25 -11 -61 -18 -80 -23 -67 -32 -95 -40 -130 -7 -33 -12 -47 -41 -132 -6 -18 -14 -51 -19 -73 -4 -22 -12 -51 -17 -65 -6 -14 -18 -52 -27 -85 -10 -33 -22 -73 -28 -90 -5 -16 -14 -46 -18 -65 -4 -19 -14 -51 -20 -70 -32 -91 -40 -117 -40 -139 0 -13 -6 -35 -14 -49 -13 -26 -29 -79 -45 -152 -4 -19 -13 -45 -19 -57 -7 -12 -12 -32 -12 -45 0 -13 -7 -33 -15 -44 -8 -10 -15 -32 -15 -47 0 -16 -5 -38 -12 -50 -6 -12 -15 -38 -19 -57 -4 -19 -12 -50 -18 -67 -6 -18 -16 -48 -22 -65 -6 -18 -15 -49 -19 -68 -4 -19 -13 -50 -19 -67 -6 -18 -16 -48 -22 -65 -6 -18 -15 -53 -20 -78 -5 -24 -14 -49 -19 -54 -6 -6 -10 -21 -10 -35 -1 -15 -7 -37 -15 -51 -8 -14 -14 -38 -15 -53 0 -16 -5 -37 -11 -48 -6 -11 -14 -41 -19 -67 -26 -138 -33 -163 -43 -159 -12 4 -36 66 -47 122 -7 38 -12 52 -40 135 -7 19 -15 54 -20 78 -4 24 -12 48 -18 54 -7 7 -12 25 -12 41 0 16 -6 43 -14 60 -14 34 -31 95 -47 167 -5 24 -14 49 -19 54 -6 6 -10 23 -10 39 0 16 -6 41 -14 55 -14 27 -29 81 -47 162 -5 24 -14 49 -19 54 -6 6 -10 25 -10 43 0 19 -6 46 -14 61 -7 15 -16 48 -20 74 -4 26 -11 50 -17 53 -5 4 -9 18 -9 33 0 15 -6 39 -14 54 -8 14 -17 45 -21 67 -4 23 -11 43 -16 47 -5 3 -9 17 -9 32 0 15 -7 40 -15 56 -8 15 -15 38 -15 50 0 11 -7 34 -15 50 -8 15 -15 38 -15 50 0 11 -7 34 -15 50 -8 15 -15 37 -15 48 0 11 -6 34 -14 51 -8 18 -17 49 -21 70 -3 21 -12 40 -18 43 -7 2 -13 23 -14 45 -1 22 -6 46 -11 52 -5 7 -13 33 -16 59 -4 26 -11 50 -15 53 -5 2 -12 25 -15 50 -4 24 -11 47 -17 50 -5 4 -9 18 -9 32 0 32 -85 119 -127 129 -15 4 -52 2 -81 -4 -45 -9 -58 -9 -75 3 -22 15 -42 18 -64 8z m77 -85 c0 -10 -4 -18 -10 -18 -15 0 -32 40 -25 58 6 15 8 15 21 -2 8 -11 14 -28 14 -38z"/> <path d="M5423 6529 c-8 -8 -9 -47 -6 -123 3 -63 0 -164 -7 -231 -14 -139 -15 -449 -1 -820 5 -143 10 -808 11 -1478 0 -831 4 -1242 12 -1295 18 -128 17 -137 -14 -140 -15 -2 -41 4 -58 13 -30 16 -32 16 -37 -5 -3 -12 -11 -19 -19 -16 -7 3 -30 8 -51 12 -52 9 -60 17 -78 82 -16 55 -18 90 -16 442 2 301 -9 1700 -13 1792 -5 103 -5 108 16 119 21 11 21 12 3 26 -16 11 -17 17 -7 33 6 11 8 21 2 25 -13 8 -17 1224 -4 1313 4 23 10 45 15 48 5 3 5 13 -1 23 -10 20 -4 31 18 31 8 0 20 8 27 17 11 14 16 15 28 5 13 -11 17 -10 26 5 9 16 12 16 21 3 5 -8 10 -23 10 -32 0 -21 1 -21 34 -8 14 5 26 16 26 24 0 7 7 16 15 20 9 3 15 18 15 35 0 45 -51 68 -171 76 -131 9 -134 7 -134 -124 l0 -100 -41 -43 c-58 -59 -107 -159 -114 -233 -4 -33 -10 -68 -14 -77 -5 -11 -1 -23 13 -35 12 -9 21 -23 21 -30 0 -15 29 -17 50 -3 13 9 13 11 0 20 -8 5 -19 11 -24 13 -5 2 1 17 13 34 13 17 24 44 25 60 1 31 36 113 47 113 4 0 10 -10 15 -22 4 -13 10 -824 11 -1803 2 -1120 7 -1794 13 -1817 6 -20 18 -46 29 -59 18 -22 19 -22 314 -23 200 -1 300 -5 307 -12 8 -8 -19 -33 -97 -92 -59 -45 -121 -92 -137 -104 -16 -13 -37 -22 -47 -20 -10 2 -29 -4 -43 -13 -14 -9 -30 -14 -35 -10 -6 3 -22 -2 -37 -12 -15 -9 -41 -17 -58 -18 -50 0 -45 -28 8 -44 25 -7 49 -10 54 -7 5 3 23 1 39 -4 46 -17 104 11 206 97 109 91 131 111 199 180 30 31 60 53 72 53 18 0 50 16 76 37 3 3 8 55 12 116 5 62 10 146 13 187 5 69 4 77 -18 103 -13 15 -29 27 -36 27 -23 0 -7 -32 22 -43 12 -5 17 -15 15 -29 -2 -18 -9 -22 -29 -20 -27 2 -55 -20 -45 -36 3 -5 19 -12 36 -16 28 -5 30 -7 18 -28 -7 -13 -21 -33 -31 -45 -15 -16 -16 -25 -8 -41 8 -15 7 -23 -4 -32 -10 -8 -12 -17 -6 -29 8 -13 0 -25 -37 -54 -40 -33 -47 -36 -60 -23 -12 12 -12 20 -2 48 7 18 17 80 21 138 15 193 31 1905 18 1931 -5 10 -2 24 7 38 l15 21 33 -25 c19 -14 47 -45 62 -68 16 -23 34 -47 39 -53 6 -6 17 -22 25 -34 8 -12 21 -28 28 -36 6 -7 12 -17 12 -23 0 -5 6 -16 13 -23 6 -8 20 -29 31 -48 71 -133 89 -166 95 -170 4 -3 11 -12 15 -20 12 -27 62 -105 81 -127 5 -7 16 -19 23 -27 6 -8 12 -18 12 -22 0 -10 74 -103 83 -104 10 0 9 28 -2 35 -6 3 -16 18 -24 33 -39 77 -91 169 -102 182 -7 8 -33 51 -58 96 -45 81 -148 232 -225 334 -26 34 -40 62 -36 72 6 21 -24 53 -70 72 -44 18 -60 48 -51 95 9 45 8 1081 -1 1116 -4 18 -2 27 10 31 9 4 19 4 21 2 7 -6 18 -153 16 -203 -1 -22 4 -52 9 -66 8 -17 8 -34 1 -52 -6 -16 -7 -29 -1 -32 5 -3 9 -18 9 -33 0 -15 2 -45 4 -67 2 -22 0 -45 -5 -52 -6 -7 -5 -20 1 -32 6 -11 11 -33 11 -50 0 -20 10 -42 29 -63 l29 -33 7 35 c3 19 3 199 -1 400 -7 354 -8 652 -4 755 2 28 -2 61 -9 73 -10 19 -20 22 -80 22 -54 0 -74 -4 -95 -21 l-27 -21 -20 21 c-11 11 -25 21 -31 21 -25 0 -79 -46 -86 -75 -5 -16 -15 -30 -23 -30 -14 0 -15 18 -3 68 6 24 4 27 -19 27 -36 0 -45 -24 -37 -100 9 -84 -5 -434 -19 -480 -16 -51 -13 -571 4 -855 11 -183 15 -520 16 -1428 1 -1240 2 -1223 -40 -1215 -33 7 -39 149 -37 886 1 389 -1 991 -5 1337 -9 819 -11 1319 -4 1530 5 142 9 177 26 212 11 23 23 57 26 77 5 32 3 37 -21 46 -35 13 -49 13 -63 -1z m356 -1524 c1 -1421 -1 -1712 -19 -2150 -11 -298 -17 -360 -36 -376 -8 -6 -14 -21 -15 -33 -1 -16 -3 -15 -9 8 -5 16 -9 789 -8 1725 0 933 -3 1814 -7 1957 -8 258 -7 262 14 283 11 11 27 21 35 21 8 0 17 8 22 18 5 12 10 3 15 -33 4 -27 8 -666 8 -1420z m-171 1315 c26 -130 35 -595 38 -2100 1 -734 5 -1426 8 -1537 l6 -202 -28 -26 c-26 -24 -51 -33 -53 -17 -1 4 -4 696 -7 1537 -7 1521 -5 2392 5 2408 9 15 19 -6 31 -63z m258 -46 c-1 -41 0 -77 4 -79 7 -4 -4 -108 -16 -144 -6 -20 -4 -23 9 -18 11 4 17 1 17 -7 0 -7 3 -28 6 -45 10 -46 -21 -41 -46 8 -18 36 -20 58 -19 213 0 95 3 177 6 182 4 5 14 -1 24 -13 15 -18 18 -37 15 -97z"/> <path d="M1635 6511 c-9 -30 4 -121 21 -146 23 -32 16 -63 -25 -118 -53 -71 -76 -119 -104 -221 -26 -89 -26 -107 0 -164 l14 -33 30 21 c34 25 37 40 9 47 -25 7 -25 15 0 30 21 14 52 105 43 129 -3 8 6 25 21 39 14 13 26 31 26 40 0 8 4 15 9 15 16 0 51 -51 51 -74 0 -12 7 -31 15 -42 8 -10 15 -29 15 -41 0 -11 14 -51 30 -88 17 -37 30 -79 30 -93 0 -15 7 -36 15 -46 8 -11 15 -28 15 -39 0 -21 29 -117 40 -132 4 -5 11 -28 15 -49 3 -22 13 -49 21 -60 8 -11 14 -31 14 -43 0 -12 6 -37 14 -55 8 -18 24 -65 37 -105 16 -50 29 -73 42 -77 16 -4 18 -11 13 -53 -5 -42 -5 -44 5 -20 9 22 14 26 25 16 8 -6 14 -16 14 -22 0 -6 6 -18 13 -26 7 -9 21 -43 32 -76 10 -33 24 -71 31 -85 11 -23 24 -56 61 -155 9 -22 19 -49 23 -60 24 -60 50 -144 50 -158 0 -9 6 -36 14 -59 7 -24 21 -70 30 -103 17 -58 33 -100 62 -158 8 -16 14 -39 14 -52 0 -12 7 -28 15 -35 8 -7 15 -23 15 -35 0 -12 7 -28 15 -35 8 -7 15 -27 15 -45 0 -18 7 -38 15 -45 8 -7 15 -27 15 -46 0 -18 6 -39 14 -47 8 -8 16 -27 18 -42 2 -16 9 -30 16 -33 15 -5 17 64 2 73 -5 3 -10 17 -10 30 0 14 -8 44 -19 67 -10 24 -27 68 -36 98 -10 30 -24 65 -31 77 -8 12 -14 35 -14 51 0 15 -4 32 -8 38 -5 5 -19 43 -31 84 -13 41 -29 92 -37 113 -8 20 -14 45 -14 55 0 24 -63 216 -94 286 -14 32 -26 66 -26 75 0 9 -7 25 -15 35 -8 11 -15 29 -15 40 0 12 -7 30 -15 40 -8 11 -15 26 -15 34 0 7 -36 86 -81 174 -44 88 -93 195 -109 238 -16 43 -41 101 -55 129 -14 28 -25 60 -25 71 0 11 -7 23 -15 26 -9 4 -15 19 -15 38 0 17 -7 44 -15 60 -8 15 -15 38 -15 50 0 12 -7 31 -15 42 -8 10 -15 32 -15 48 0 32 -24 122 -46 174 -17 40 -18 69 -2 74 9 3 9 6 0 12 -7 4 -12 2 -12 -3 0 -6 -3 -11 -7 -11 -8 0 -10 20 -11 115 0 33 -1 72 -1 87 0 15 4 30 9 33 6 4 10 -3 10 -14 0 -12 7 -21 15 -21 8 0 15 5 15 10 0 15 19 12 37 -5 8 -9 13 -24 10 -34 -4 -16 -1 -16 19 -7 29 13 31 36 4 36 -11 0 -20 7 -20 15 0 8 -4 15 -10 15 -5 0 -10 9 -10 20 0 19 2 20 29 6 16 -9 31 -25 34 -37 3 -12 10 -18 16 -14 12 7 12 137 0 157 -5 8 -49 13 -132 16 -121 4 -125 4 -132 -17z"/> <path d="M4443 6520 c-17 -7 -23 -18 -23 -39 0 -16 -4 -33 -10 -36 -6 -4 -10 7 -10 24 0 29 -3 31 -34 31 -19 0 -38 5 -41 10 -3 6 -17 10 -29 10 -31 0 -54 -50 -39 -88 7 -21 5 -36 -11 -67 -11 -22 -23 -60 -27 -85 -4 -25 -13 -65 -19 -90 -7 -25 -19 -72 -27 -105 -20 -80 -43 -162 -58 -205 -12 -34 -30 -100 -45 -170 -5 -19 -13 -48 -18 -65 -6 -16 -17 -55 -26 -85 -35 -130 -49 -178 -62 -220 -8 -25 -14 -55 -14 -67 0 -12 -6 -37 -14 -55 -8 -18 -22 -60 -31 -93 -10 -33 -22 -71 -27 -84 -5 -14 -13 -43 -18 -65 -4 -23 -13 -54 -18 -71 -13 -36 -35 -115 -57 -205 -9 -36 -20 -79 -26 -96 -5 -16 -13 -50 -18 -75 -12 -55 -51 -201 -87 -319 -22 -73 -37 -165 -36 -219 1 -24 -5 -75 -13 -113 -8 -38 -15 -93 -15 -122 0 -29 -7 -75 -15 -102 -8 -27 -15 -67 -15 -89 0 -22 -5 -60 -11 -84 -5 -23 -14 -68 -18 -100 -5 -31 -19 -92 -31 -136 -20 -73 -37 -138 -59 -235 -21 -87 -33 -137 -42 -167 -7 -22 -7 -39 0 -52 6 -11 11 -31 11 -44 0 -14 9 -35 19 -48 18 -22 20 -22 26 -6 4 9 2 31 -5 47 -13 31 -10 75 8 150 52 214 65 270 71 305 4 23 11 47 16 54 16 27 45 189 84 476 12 82 25 163 30 180 5 16 19 75 31 130 12 55 27 127 35 160 8 33 21 94 30 135 9 41 23 98 30 125 8 28 22 86 31 130 23 110 59 252 90 360 14 50 35 122 45 160 31 109 40 138 48 160 5 11 18 63 31 115 12 52 25 100 30 105 4 6 11 32 15 60 4 27 13 62 21 77 8 15 14 39 14 53 0 14 10 39 21 55 12 16 19 35 16 44 -3 8 12 70 34 136 22 67 44 143 50 168 5 26 15 65 20 87 6 22 14 58 18 80 14 67 28 92 56 99 23 6 26 11 21 32 -9 35 10 57 35 43 15 -8 19 -21 19 -67 0 -32 -4 -62 -9 -67 -5 -6 -13 -32 -17 -59 -5 -39 -4 -48 7 -44 8 3 15 22 17 44 2 21 10 46 18 55 8 8 18 37 23 62 5 26 19 64 33 85 39 61 49 82 43 92 -8 12 -42 12 -72 0z m-133 -64 c0 -2 -3 -11 -6 -20 -9 -23 -24 -20 -24 4 0 11 7 20 15 20 8 0 15 -2 15 -4z"/> <path d="M4630 6522 c-74 -10 -110 -50 -115 -129 -3 -41 -14 -84 -38 -148 -6 -16 -10 -49 -9 -72 0 -24 -3 -43 -8 -43 -16 0 -32 -41 -26 -66 8 -31 26 -22 26 14 1 15 7 38 15 52 8 14 14 41 15 61 0 23 6 39 15 43 8 3 15 18 15 33 0 16 6 37 14 48 7 11 16 32 20 48 7 28 36 38 36 12 0 -8 5 -15 10 -15 6 0 10 7 10 16 0 11 8 14 33 12 27 -2 32 -7 32 -28 0 -14 10 -36 23 -50 19 -21 24 -22 32 -10 7 11 4 16 -10 18 -11 2 -20 10 -20 18 0 17 21 19 37 3 7 -7 12 -3 17 15 3 14 10 26 15 26 17 0 20 -31 7 -73 -7 -23 -21 -71 -31 -107 -20 -75 -100 -328 -120 -380 -7 -19 -52 -156 -99 -305 -85 -264 -93 -288 -123 -370 -13 -36 -39 -122 -77 -260 -25 -92 -34 -120 -70 -220 -20 -55 -44 -127 -52 -160 -9 -33 -22 -70 -30 -82 -8 -12 -14 -31 -14 -41 0 -10 -9 -35 -20 -57 -11 -22 -20 -47 -20 -57 0 -9 -8 -41 -19 -70 -10 -29 -24 -73 -31 -98 -8 -25 -17 -49 -22 -54 -4 -6 -8 -21 -8 -35 0 -15 -7 -35 -15 -45 -8 -11 -15 -31 -15 -44 0 -25 -23 -102 -46 -157 -20 -46 -74 -225 -74 -244 0 -9 -6 -25 -14 -36 -7 -11 -17 -40 -21 -65 -4 -25 -20 -84 -36 -131 -16 -48 -29 -92 -29 -99 0 -11 -22 -66 -41 -102 -5 -10 -9 -26 -9 -37 0 -11 -6 -32 -14 -48 -8 -15 -19 -50 -24 -78 -6 -27 -25 -94 -44 -147 l-34 -98 -22 22 c-18 18 -24 20 -34 9 -11 -10 -10 -14 4 -22 16 -9 15 -13 -7 -56 -29 -54 -29 -53 -9 -53 24 0 12 -35 -14 -38 -24 -4 -29 -21 -10 -40 15 -15 -31 -34 -87 -36 -32 -1 -42 3 -50 22 -5 12 -16 22 -23 22 -18 0 -51 40 -52 62 0 9 -4 19 -9 23 -15 8 -25 -35 -22 -87 3 -56 -4 -74 -25 -57 -11 9 -18 8 -32 -5 -23 -20 -46 -21 -62 -1 -7 9 -22 12 -40 9 -42 -9 -80 20 -80 61 0 18 -7 46 -15 61 -8 16 -15 39 -15 51 0 12 -4 24 -9 27 -5 3 -12 22 -16 42 -3 20 -10 44 -15 53 -17 29 -46 105 -58 146 -48 177 -68 232 -117 340 -13 28 -26 58 -29 68 -3 9 -10 17 -16 17 -14 0 -13 -66 2 -93 6 -12 15 -35 19 -52 4 -16 17 -55 29 -85 12 -30 28 -80 36 -110 21 -79 62 -188 100 -263 8 -16 14 -36 14 -46 0 -9 7 -26 15 -37 8 -10 15 -29 15 -41 0 -12 7 -28 15 -37 8 -8 15 -22 15 -32 0 -10 5 -32 12 -51 14 -39 9 -47 -23 -34 -13 5 -40 12 -60 15 -28 5 -39 13 -52 41 -9 20 -17 43 -17 51 0 8 -8 36 -19 62 -10 26 -26 74 -36 107 -32 110 -48 160 -56 180 -22 53 -41 114 -48 153 -5 24 -13 48 -19 54 -7 7 -12 24 -12 38 0 14 -7 35 -15 46 -8 10 -14 37 -15 59 0 22 -13 74 -29 115 -16 41 -37 102 -47 135 -10 33 -24 69 -31 80 -7 11 -13 28 -13 38 0 20 -25 101 -47 154 -7 17 -13 37 -13 45 0 7 -6 22 -13 33 -8 11 -19 45 -26 76 -6 31 -21 74 -31 95 -11 21 -20 50 -20 65 0 15 -7 34 -15 43 -8 8 -15 26 -15 39 0 32 -9 57 -21 57 -15 0 -10 -83 6 -104 8 -11 15 -31 15 -45 0 -14 7 -35 15 -45 8 -11 15 -32 15 -46 0 -14 7 -35 15 -46 8 -10 15 -35 15 -54 0 -20 4 -40 8 -45 11 -13 52 -136 52 -157 0 -9 7 -21 15 -28 9 -7 15 -29 15 -51 0 -21 4 -40 9 -43 5 -3 12 -21 15 -40 4 -20 13 -48 21 -63 8 -15 15 -36 15 -45 0 -9 6 -29 14 -45 17 -35 37 -90 43 -123 3 -14 11 -39 19 -57 8 -17 14 -40 14 -51 0 -11 7 -33 15 -48 8 -16 15 -41 15 -55 0 -14 7 -34 15 -45 8 -10 15 -33 15 -50 0 -17 6 -37 14 -43 8 -7 16 -28 19 -49 6 -44 26 -120 37 -143 5 -9 12 -34 16 -54 4 -21 13 -50 20 -64 8 -14 14 -33 14 -41 0 -25 35 -110 53 -128 16 -15 46 -17 268 -18 147 0 254 -5 260 -11 6 -6 -6 -21 -33 -43 -24 -19 -47 -40 -51 -47 -4 -7 -15 -13 -23 -13 -19 0 -81 -46 -113 -84 -25 -29 -98 -66 -131 -66 -9 0 -23 -7 -30 -14 -7 -10 -19 -12 -33 -8 -12 4 -40 7 -62 6 -22 -1 -52 -2 -67 -3 -32 -1 -34 -9 -14 -36 13 -19 15 -19 33 -3 18 16 20 16 36 1 15 -16 18 -15 36 1 15 14 24 15 40 7 11 -6 29 -11 40 -11 12 0 21 -4 21 -9 0 -23 41 -21 82 5 24 15 45 30 48 33 3 4 19 15 35 25 36 24 115 88 164 136 44 43 123 106 176 142 48 33 82 96 105 198 9 39 25 87 46 138 8 18 14 43 14 55 0 12 7 31 15 41 8 11 15 31 15 45 1 14 7 37 15 51 8 14 14 36 15 50 0 15 4 30 9 35 6 6 14 28 20 50 9 38 16 60 42 138 6 17 14 46 16 62 3 17 9 35 14 40 4 6 13 29 18 50 10 37 24 86 57 195 7 25 20 68 28 95 18 63 35 111 52 153 8 18 14 43 14 55 1 12 7 33 15 47 8 14 15 36 15 50 0 14 7 34 15 44 8 11 15 31 15 45 1 14 7 37 15 51 8 14 15 36 15 50 0 14 7 34 15 44 8 11 15 31 15 45 1 14 7 37 15 51 8 14 14 36 15 51 0 14 4 29 9 35 6 5 14 27 20 49 5 22 15 56 22 75 6 19 17 51 24 70 7 19 18 51 25 70 6 19 16 51 20 70 8 34 14 56 40 130 7 19 15 49 18 65 2 17 11 39 18 50 8 11 14 30 14 42 0 12 6 37 14 55 21 51 37 99 46 138 9 39 25 87 46 138 8 18 14 43 14 55 0 13 7 32 15 43 8 10 15 29 15 41 0 12 6 37 14 55 21 51 37 99 46 138 4 19 14 51 20 70 7 19 18 51 25 70 7 19 18 51 24 70 7 19 16 49 21 65 10 36 28 89 46 130 7 17 20 57 29 90 10 33 24 75 31 93 8 18 14 40 14 50 0 9 7 26 15 36 10 13 15 43 15 82 0 52 -4 68 -24 91 -23 27 -28 28 -113 28 -48 1 -99 -1 -113 -3z m-1285 -4062 c-3 -6 -10 -10 -16 -10 -10 0 -12 33 -2 44 9 9 26 -22 18 -34z"/> <path d="M6963 6512 c-15 -8 -36 -25 -46 -38 -10 -13 -35 -33 -57 -45 -33 -19 -64 -55 -115 -137 -5 -9 -29 -45 -52 -80 -24 -35 -43 -65 -43 -67 0 -2 -21 -34 -47 -72 -26 -37 -80 -117 -121 -178 -41 -60 -78 -112 -81 -115 -4 -3 -17 -22 -29 -43 -12 -20 -26 -43 -32 -50 -11 -12 -48 -64 -166 -232 -82 -117 -144 -214 -144 -225 0 -5 -10 -18 -21 -29 -19 -18 -21 -26 -13 -63 10 -46 37 -60 42 -23 2 12 15 26 32 32 17 6 30 18 30 26 0 22 52 77 73 77 13 0 17 5 12 19 -4 12 4 29 24 50 17 18 32 40 35 49 3 9 24 37 46 61 22 24 40 47 40 51 0 12 53 86 92 128 20 22 48 62 62 89 14 28 32 53 41 56 8 4 15 14 15 24 0 10 18 38 40 63 22 25 47 61 56 80 20 41 54 91 72 105 14 11 28 34 67 113 15 28 35 57 46 62 10 6 19 15 19 20 0 8 25 36 131 146 34 36 45 41 84 42 37 0 45 -3 45 -18 0 -10 -6 -25 -13 -32 -16 -16 -47 -81 -42 -87 10 -9 36 11 58 46 35 55 76 96 90 90 7 -3 21 1 32 9 29 22 54 17 61 -11 7 -28 -28 -95 -70 -134 -14 -14 -26 -28 -26 -33 0 -8 -75 -116 -102 -148 -35 -41 -78 -99 -78 -105 0 -10 -122 -169 -137 -178 -7 -4 -13 -16 -13 -26 0 -10 -13 -31 -30 -47 -16 -16 -30 -37 -30 -46 0 -10 -4 -18 -8 -18 -5 0 -31 -32 -58 -71 -27 -39 -64 -86 -81 -105 -18 -19 -33 -41 -33 -49 0 -8 -6 -18 -12 -22 -15 -9 -83 -92 -117 -142 -13 -20 -30 -40 -37 -44 -8 -4 -14 -13 -14 -20 0 -7 -22 -34 -48 -62 -26 -27 -66 -77 -91 -110 -24 -33 -49 -64 -55 -70 -26 -22 -126 -158 -126 -171 0 -20 32 -3 53 28 8 13 31 41 51 63 20 22 36 46 36 53 0 7 7 15 15 18 8 4 15 12 15 19 0 7 4 15 9 17 5 2 32 35 61 73 30 39 64 81 76 95 95 104 124 138 124 146 0 5 13 22 29 37 17 15 33 36 36 46 7 24 35 35 49 21 8 -8 6 -15 -8 -25 -18 -14 -46 -59 -46 -76 0 -6 -13 -23 -30 -39 -16 -16 -30 -37 -30 -46 0 -9 -8 -23 -17 -30 -10 -7 -15 -16 -10 -20 10 -10 57 36 57 56 0 9 13 30 30 46 16 16 30 33 30 37 0 4 5 13 10 20 39 46 80 108 80 120 0 8 7 17 14 20 8 3 23 21 32 39 9 18 23 37 30 41 8 4 14 13 14 20 0 7 14 25 31 41 16 17 27 36 25 43 -3 7 4 17 14 23 11 6 20 17 20 25 0 7 14 27 30 43 30 31 38 52 20 52 -5 0 -10 9 -10 20 0 11 5 20 10 20 6 0 10 -7 10 -16 0 -25 21 -11 41 26 10 19 25 38 34 42 8 5 15 16 15 23 0 8 4 15 8 15 5 0 14 10 21 23 32 60 124 197 156 231 25 27 71 98 81 126 3 9 21 26 40 39 19 13 34 27 34 32 0 5 11 9 25 9 15 0 25 6 25 14 0 21 19 30 35 16 9 -7 15 -8 20 0 3 5 10 10 16 10 17 0 9 -40 -16 -80 -14 -22 -25 -44 -25 -49 0 -6 -6 -14 -12 -18 -14 -9 -33 -36 -47 -68 -5 -11 -21 -31 -35 -44 -14 -14 -26 -32 -26 -40 0 -9 -14 -31 -30 -50 -17 -18 -30 -39 -30 -46 0 -7 -7 -15 -15 -19 -8 -3 -15 -12 -15 -21 0 -8 -4 -15 -9 -15 -6 0 -16 -11 -23 -24 -22 -41 -86 -132 -102 -145 -9 -8 -16 -17 -16 -22 0 -4 -13 -23 -30 -41 -16 -18 -30 -37 -30 -43 0 -5 -14 -23 -30 -39 -17 -16 -30 -35 -30 -43 0 -8 -13 -27 -30 -43 -16 -16 -30 -38 -30 -49 0 -10 -7 -21 -15 -25 -8 -3 -15 -11 -15 -19 0 -7 -12 -24 -26 -38 -14 -13 -30 -33 -35 -44 -12 -27 -31 -57 -45 -70 -18 -17 -74 -92 -74 -100 0 -3 -26 -41 -58 -83 -32 -42 -62 -84 -65 -92 -12 -26 -95 -149 -108 -160 -3 -3 -9 -12 -12 -20 -4 -8 -16 -28 -27 -45 -11 -16 -23 -38 -26 -47 -4 -10 -10 -18 -15 -18 -5 0 -14 -11 -19 -25 -5 -14 -13 -25 -18 -25 -5 0 -16 -15 -25 -32 -9 -18 -22 -40 -28 -49 -9 -12 -7 -21 12 -41 21 -23 46 -65 63 -108 3 -8 15 -28 26 -45 11 -16 23 -37 27 -45 7 -16 44 -71 53 -80 3 -3 31 -43 62 -90 31 -47 80 -118 107 -158 28 -41 51 -75 51 -77 0 -2 33 -54 74 -115 41 -60 91 -138 112 -172 21 -35 41 -65 44 -68 4 -3 10 -12 14 -20 9 -20 24 -44 71 -115 22 -33 44 -68 50 -77 5 -10 50 -84 100 -165 49 -81 99 -167 112 -191 13 -24 37 -69 54 -100 50 -90 57 -104 79 -154 11 -26 20 -54 20 -62 0 -22 55 -113 101 -168 57 -69 66 -100 40 -141 -20 -31 -21 -31 -27 -9 -5 19 -11 22 -33 17 -24 -5 -28 -1 -45 42 -26 66 -103 242 -121 276 -29 55 -103 193 -130 242 -15 28 -43 69 -62 92 -18 23 -32 45 -31 50 1 4 -11 22 -27 39 -36 37 -65 80 -103 154 -15 30 -47 86 -70 124 -23 37 -42 70 -42 73 0 3 -20 38 -45 77 -25 40 -45 76 -45 80 0 18 -121 202 -298 456 -122 174 -265 422 -256 444 3 8 -4 24 -15 35 -16 16 -19 28 -14 58 l6 38 -42 -42 c-22 -23 -41 -46 -41 -51 0 -5 14 -21 30 -35 17 -15 30 -33 30 -41 0 -7 7 -19 15 -26 8 -7 15 -19 15 -27 0 -9 23 -52 50 -97 65 -104 56 -89 151 -251 46 -77 99 -165 120 -195 20 -30 45 -71 56 -90 10 -19 36 -62 59 -95 22 -33 45 -71 52 -85 6 -14 16 -32 22 -40 31 -47 90 -152 90 -158 0 -5 20 -37 43 -73 24 -36 46 -69 48 -74 9 -21 57 -95 144 -225 50 -74 108 -164 130 -200 39 -64 145 -273 145 -285 0 -4 14 -36 30 -72 36 -78 38 -112 6 -142 -20 -19 -26 -20 -33 -8 -4 8 -18 19 -30 26 -13 6 -23 18 -23 26 0 35 -102 308 -142 380 -58 103 -97 168 -129 216 -22 31 -39 59 -39 63 0 3 -19 34 -43 68 -23 35 -60 92 -82 128 -21 36 -41 67 -45 70 -9 8 -200 327 -200 334 0 4 -11 22 -24 39 -13 18 -38 58 -55 90 -56 103 -124 221 -168 288 -24 37 -43 71 -43 76 0 9 -8 20 -49 69 -5 6 -17 26 -26 45 -10 19 -26 45 -35 59 -75 108 -120 185 -120 204 0 49 -63 72 -108 40 -30 -21 -28 -29 10 -40 33 -10 41 -21 75 -104 15 -39 63 -115 215 -342 21 -32 38 -61 38 -64 0 -3 22 -43 49 -88 56 -94 83 -139 123 -216 16 -30 44 -79 62 -110 18 -30 38 -74 46 -97 7 -23 43 -80 79 -127 36 -47 86 -115 111 -151 25 -37 50 -72 56 -78 5 -7 13 -19 17 -27 4 -8 16 -28 27 -45 11 -16 23 -37 27 -45 4 -8 19 -33 34 -55 39 -59 77 -126 90 -157 6 -16 15 -28 19 -28 4 0 13 -12 19 -27 6 -16 27 -57 47 -93 123 -221 146 -280 121 -314 -12 -17 -18 -18 -47 -8 -18 7 -56 12 -85 12 -62 0 -138 37 -159 79 -8 14 -32 46 -53 71 -22 25 -49 64 -61 87 -35 70 -46 88 -59 96 -7 4 -13 13 -13 19 0 5 -13 27 -29 47 -15 20 -31 46 -35 59 -4 12 -12 22 -17 22 -5 0 -9 5 -9 12 0 10 -66 115 -81 128 -3 3 -15 24 -27 48 -12 24 -41 69 -65 100 -23 31 -50 72 -60 91 -10 18 -22 38 -27 45 -35 43 -80 108 -80 116 0 5 -6 13 -13 17 -6 4 -18 20 -25 34 -7 14 -28 41 -45 60 -18 19 -41 54 -52 77 -21 44 -32 51 -41 28 -8 -20 23 -76 41 -76 14 0 19 -17 16 -46 -2 -18 29 -84 39 -84 6 0 10 -9 10 -20 0 -18 17 -52 58 -115 6 -11 18 -31 24 -45 7 -14 25 -41 40 -61 15 -20 28 -40 28 -43 0 -3 18 -33 40 -65 22 -32 40 -61 40 -65 0 -9 43 -70 53 -74 4 -2 7 -8 7 -14 0 -6 14 -30 30 -55 17 -24 30 -48 30 -52 0 -5 7 -14 15 -21 8 -7 15 -19 15 -27 0 -8 13 -32 29 -52 15 -20 31 -46 35 -58 4 -13 12 -23 17 -23 5 0 9 -6 9 -14 0 -12 47 -91 77 -132 4 -5 20 -32 35 -60 45 -83 47 -84 253 -85 99 -1 225 -1 280 -1 133 2 162 -1 176 -15 9 -9 4 -15 -17 -27 -16 -8 -46 -31 -68 -51 -21 -19 -41 -35 -45 -35 -6 0 -51 -37 -92 -75 -9 -8 -22 -15 -29 -15 -7 0 -22 -8 -32 -17 -10 -9 -42 -21 -71 -25 -29 -5 -66 -11 -84 -14 -18 -4 -34 -13 -36 -23 -3 -10 -5 -7 -6 8 -1 22 -4 23 -38 17 -21 -3 -56 -6 -79 -6 -33 0 -43 -4 -52 -24 l-11 -24 117 0 c64 0 149 -2 189 -6 44 -4 74 -2 78 4 3 5 13 10 21 10 15 0 86 55 149 115 17 17 53 48 80 70 27 22 69 59 95 82 25 24 55 43 68 43 94 1 152 46 152 119 0 41 -29 109 -56 132 -8 6 -14 16 -14 21 0 5 -6 15 -12 22 -7 8 -20 24 -28 36 -8 12 -30 42 -47 66 -18 23 -33 50 -33 58 0 9 -5 16 -10 16 -6 0 -15 10 -20 23 -11 23 -31 59 -40 67 -15 14 -110 162 -110 171 0 5 -7 12 -15 15 -8 4 -15 10 -15 15 0 5 -12 28 -27 52 -15 23 -36 58 -46 77 -10 19 -24 40 -30 45 -14 12 -33 42 -46 70 -5 11 -21 37 -35 58 -14 21 -26 42 -26 46 0 5 -7 14 -15 21 -8 7 -15 20 -15 30 0 10 -7 20 -15 24 -8 3 -15 12 -15 20 0 9 -9 20 -21 26 -11 7 -18 18 -15 25 2 7 -2 19 -10 25 -8 7 -14 19 -14 27 0 7 -7 16 -15 19 -8 4 -15 13 -15 20 0 13 -33 68 -50 84 -12 11 -40 60 -40 69 0 5 -13 25 -30 43 -16 18 -30 37 -30 43 0 6 -13 25 -30 43 -16 18 -30 42 -30 53 0 16 -4 19 -21 14 -19 -6 -21 -4 -16 14 3 12 -1 28 -9 35 -8 8 -14 20 -14 26 0 7 -13 29 -30 50 -16 21 -30 41 -30 44 0 7 -12 24 -42 57 -10 10 -18 23 -18 27 0 5 -16 25 -35 45 -19 20 -35 41 -35 47 0 5 -4 10 -10 10 -5 0 -10 9 -10 20 0 10 -9 24 -20 30 -11 6 -20 15 -20 21 0 12 -49 59 -61 59 -5 0 -11 11 -15 25 -5 21 1 33 30 61 35 34 216 267 216 279 0 2 40 60 90 127 164 225 180 247 180 258 0 5 4 10 9 10 5 0 23 21 39 48 16 26 37 56 46 67 18 21 131 178 156 214 15 23 135 188 272 375 40 55 75 103 76 108 2 5 17 23 33 41 16 17 29 35 29 39 0 10 81 123 117 164 58 65 64 88 31 124 -21 22 -25 23 -130 17 -91 -6 -115 -10 -141 -29 -21 -15 -32 -18 -35 -10 -13 39 -59 54 -82 27 -12 -15 -110 -55 -135 -55 -7 0 -17 9 -20 20 -16 50 -71 65 -129 35 -32 -17 -53 -19 -58 -6 -6 16 -125 18 -155 3z m157 -34 c0 -7 -5 -20 -10 -28 -8 -12 -10 -9 -10 13 0 15 5 27 10 27 6 0 10 -6 10 -12z m516 -90 c-20 -11 -21 -38 -1 -38 22 0 18 -18 -7 -31 -28 -15 -38 -28 -38 -54 0 -11 -9 -28 -20 -38 -11 -9 -20 -23 -20 -31 0 -8 -7 -16 -15 -20 -8 -3 -15 -15 -15 -26 0 -11 -7 -23 -15 -26 -8 -4 -15 -12 -15 -20 0 -7 -11 -21 -25 -30 -14 -9 -25 -21 -25 -28 -1 -6 -14 -26 -30 -45 -16 -19 -27 -37 -25 -41 5 -8 -6 -24 -87 -130 -27 -34 -48 -71 -48 -81 0 -10 -8 -23 -18 -28 -10 -5 -40 -41 -66 -80 -27 -39 -52 -71 -56 -71 -4 0 -12 -11 -18 -25 -6 -14 -18 -25 -27 -25 -10 0 -15 -10 -15 -30 0 -18 -5 -30 -13 -30 -8 0 -19 -11 -25 -24 -6 -14 -27 -43 -47 -64 -19 -22 -35 -44 -35 -49 0 -5 -13 -25 -30 -44 -48 -55 -100 -127 -113 -157 -16 -37 -87 -132 -98 -132 -5 0 -9 -6 -9 -13 0 -13 -44 -77 -131 -190 -46 -60 -55 -79 -52 -103 3 -21 -1 -35 -15 -48 -19 -17 -22 -17 -47 0 -21 14 -25 22 -20 43 8 34 37 91 47 91 5 0 8 9 8 20 0 11 6 23 14 26 8 3 30 32 51 65 20 32 40 59 45 59 5 0 12 10 16 22 6 21 14 33 44 67 9 9 24 33 33 54 10 20 21 37 25 37 4 0 18 20 32 45 14 25 27 45 30 45 3 0 16 20 30 45 14 25 28 45 32 45 5 0 8 6 8 14 0 7 7 20 16 27 18 14 52 64 94 134 14 23 37 56 52 73 15 18 29 41 33 51 3 11 17 26 30 35 14 9 25 22 25 29 0 7 13 26 28 43 43 44 121 152 139 190 9 19 20 34 25 34 4 0 8 6 8 14 0 7 11 25 25 40 14 15 25 33 25 40 0 7 9 21 20 31 11 10 20 22 20 26 0 11 59 97 73 106 13 9 57 69 57 78 0 6 1 7 50 65 16 19 30 38 30 42 0 11 54 37 64 31 5 -3 1 -10 -8 -15z m-686 -588 c0 -6 -7 -13 -15 -16 -8 -4 -15 -15 -15 -25 0 -10 -4 -19 -9 -19 -5 0 -17 -7 -25 -16 -15 -14 -16 -14 -16 0 0 9 5 16 10 16 6 0 10 5 10 11 0 13 41 59 53 59 4 0 7 -5 7 -10z m-113 -165 c-7 -14 -15 -25 -19 -25 -4 0 -14 -7 -22 -16 -26 -26 -20 9 7 40 30 34 49 35 34 1z m-67 -86 c0 -5 -7 -9 -15 -9 -15 0 -20 12 -9 23 8 8 24 -1 24 -14z m-30 -44 c0 -14 -5 -25 -11 -25 -7 0 -18 -8 -25 -17 -23 -32 -27 -5 -4 31 25 42 40 46 40 11z m-221 -1025 c12 0 15 -13 5 -23 -7 -7 -44 36 -44 50 0 4 7 0 14 -9 7 -10 18 -18 25 -18z m941 -1471 c0 -18 -18 -9 -23 12 -4 16 -3 18 9 8 8 -6 14 -15 14 -20z m23 -53 c-1 -21 3 -26 21 -26 30 0 37 -9 25 -31 -8 -16 -6 -19 10 -19 37 0 52 -12 77 -64 14 -28 34 -64 44 -81 11 -16 25 -41 32 -55 6 -14 17 -32 24 -40 25 -31 62 -127 54 -141 -26 -41 -125 84 -216 271 -100 206 -108 226 -81 217 6 -2 11 -16 10 -31z"/> <path d="M1905 6310 c-7 -12 2 -30 16 -30 5 0 9 9 9 20 0 21 -15 27 -25 10z"/> <path d="M6988 6209 c-21 -27 -38 -54 -38 -60 0 -5 -4 -9 -9 -9 -12 0 -23 -29 -15 -41 6 -10 54 42 54 59 0 6 14 22 30 35 27 23 42 67 23 67 -5 0 -25 -23 -45 -51z"/> <path d="M3979 6208 c-1 -7 0 -23 1 -35 1 -13 -6 -33 -14 -45 -9 -12 -16 -39 -16 -59 0 -20 -7 -42 -15 -49 -8 -7 -15 -28 -15 -47 0 -20 -9 -46 -20 -60 -11 -14 -20 -34 -20 -44 0 -10 -4 -20 -9 -23 -5 -4 -12 -29 -16 -58 -4 -29 -11 -59 -15 -68 -5 -8 -16 -44 -25 -80 -9 -36 -21 -78 -27 -95 -6 -16 -13 -50 -16 -75 -2 -24 -10 -53 -17 -65 -7 -11 -16 -36 -20 -55 -3 -19 -10 -44 -14 -55 -14 -35 -39 -119 -46 -155 -4 -19 -14 -45 -22 -57 -9 -13 -13 -33 -9 -46 3 -13 -1 -32 -9 -44 -8 -11 -19 -38 -24 -59 -5 -22 -14 -55 -20 -74 -6 -19 -17 -62 -26 -95 -9 -33 -20 -69 -25 -80 -5 -11 -12 -42 -15 -70 -4 -27 -10 -54 -15 -60 -4 -5 -10 -31 -13 -57 -4 -26 -11 -56 -15 -65 -15 -28 -33 -85 -41 -123 -4 -19 -13 -45 -19 -57 -7 -12 -12 -35 -12 -51 0 -16 -6 -35 -14 -41 -7 -6 -16 -31 -19 -56 -4 -24 -11 -53 -16 -62 -11 -22 -31 -103 -41 -163 -4 -25 -15 -62 -24 -84 -18 -41 -15 -66 8 -66 16 0 26 21 26 56 0 13 4 24 9 24 5 0 12 25 16 55 3 30 11 57 16 60 5 4 9 23 9 44 0 20 7 46 15 57 8 10 15 30 15 42 0 13 6 38 14 55 14 33 31 95 45 160 5 21 15 45 24 55 8 9 17 35 20 57 8 59 28 139 38 149 5 6 9 18 9 27 0 9 7 41 16 70 39 134 57 197 69 234 7 22 20 72 30 110 9 39 23 84 30 100 7 17 16 46 20 65 7 37 23 92 36 125 10 27 29 101 38 150 4 22 12 49 18 60 6 11 15 38 21 60 27 104 35 131 42 150 5 11 13 38 18 60 6 22 18 65 27 95 10 30 19 71 22 90 3 19 12 43 21 53 9 10 16 37 16 66 1 26 6 54 12 62 15 19 12 91 -3 96 -7 3 -13 -1 -14 -9z"/> <path d="M4353 6159 c-15 -15 -17 -75 -3 -84 14 -9 22 16 18 60 -2 29 -5 34 -15 24z"/> <path d="M1940 6140 c0 -19 3 -21 12 -12 9 9 9 15 0 24 -9 9 -12 7 -12 -12z"/> <path d="M6878 6055 c-10 -13 -18 -28 -18 -34 0 -5 -4 -11 -8 -13 -4 -1 -28 -33 -52 -70 -24 -38 -48 -68 -52 -68 -4 0 -8 -7 -8 -15 0 -9 -9 -26 -21 -38 -33 -35 -42 -57 -24 -57 8 0 15 5 15 11 0 6 6 16 13 24 6 7 21 25 32 39 11 15 26 33 33 41 6 7 12 20 12 28 0 8 7 20 15 27 8 7 15 17 15 22 0 10 16 31 43 56 9 9 17 22 17 28 0 7 7 14 15 18 8 3 15 10 15 16 0 18 -25 10 -42 -15z"/> <path d="M4316 6044 c-3 -9 -6 -28 -6 -42 0 -15 -7 -36 -15 -46 -8 -11 -15 -31 -15 -45 0 -14 -7 -35 -15 -45 -8 -11 -15 -32 -15 -47 0 -14 -7 -32 -15 -39 -8 -7 -15 -25 -15 -40 0 -15 -7 -44 -15 -63 -8 -20 -15 -49 -15 -65 0 -16 -7 -35 -15 -42 -8 -7 -15 -27 -15 -44 0 -17 -7 -44 -15 -60 -8 -15 -15 -43 -15 -61 0 -18 -7 -38 -15 -45 -8 -7 -15 -29 -15 -49 -1 -20 -7 -47 -15 -61 -8 -14 -14 -39 -15 -56 0 -17 -7 -37 -15 -44 -9 -7 -15 -30 -15 -54 0 -22 -7 -50 -15 -60 -8 -11 -15 -36 -15 -55 0 -20 -7 -45 -15 -55 -8 -11 -15 -38 -15 -60 0 -23 -7 -50 -15 -60 -8 -11 -15 -39 -15 -62 0 -23 -7 -55 -15 -70 -8 -16 -15 -39 -15 -52 0 -36 24 -21 31 19 3 19 13 49 23 67 10 19 14 42 11 53 -4 12 -1 27 8 37 9 9 20 40 26 67 22 109 30 141 40 168 6 16 11 40 11 55 0 15 7 36 15 46 8 11 15 30 15 43 0 13 9 42 19 66 11 23 22 56 25 72 11 65 23 111 34 132 7 12 12 34 12 50 0 16 7 38 15 50 8 12 17 39 18 60 2 21 8 47 13 58 6 11 16 40 23 65 8 25 18 57 23 72 6 15 8 35 4 43 -3 9 1 18 9 21 9 4 15 19 15 38 1 17 7 42 15 56 8 14 14 42 15 63 0 38 -13 50 -24 21z"/> <path d="M4406 5998 c-3 -13 -6 -35 -6 -50 0 -14 -5 -28 -11 -30 -6 -2 -13 -26 -16 -53 -3 -28 -12 -59 -19 -70 -8 -11 -14 -43 -14 -71 0 -34 -5 -56 -15 -64 -9 -8 -15 -30 -15 -57 0 -60 20 -52 35 13 6 27 17 59 23 71 7 12 9 35 6 51 -4 20 -1 38 10 53 9 14 16 44 16 73 0 30 5 53 14 60 18 13 25 88 10 93 -6 2 -14 -6 -18 -19z"/> <path d="M1880 5903 c0 -22 7 -48 15 -59 8 -10 15 -35 15 -55 0 -20 7 -42 15 -49 8 -7 15 -21 15 -31 0 -23 40 -101 57 -112 7 -4 13 -14 13 -22 0 -8 11 -35 25 -61 14 -26 25 -52 25 -58 0 -6 14 -38 30 -71 16 -33 30 -67 30 -76 0 -8 7 -24 15 -35 8 -10 15 -26 15 -35 0 -9 7 -22 15 -29 8 -7 15 -23 15 -35 0 -24 45 -62 54 -46 3 5 -1 12 -10 15 -11 4 -14 13 -10 30 4 15 0 28 -9 36 -8 7 -15 26 -15 42 0 16 -6 31 -15 34 -8 3 -17 21 -21 40 -3 19 -10 34 -15 34 -5 0 -9 11 -9 25 0 14 -7 28 -15 31 -8 4 -15 16 -15 29 0 12 -7 28 -15 35 -8 7 -15 25 -15 41 0 22 -5 29 -20 29 -15 0 -20 7 -20 25 0 14 -4 25 -10 25 -5 0 -10 8 -10 18 0 10 -7 27 -15 38 -8 10 -15 26 -15 34 0 8 -7 28 -15 44 -8 15 -15 38 -15 50 0 11 -7 35 -16 51 -9 17 -20 45 -23 64 -9 50 -31 52 -31 4z"/> <path d="M5000 5735 c0 -8 5 -15 10 -15 6 0 10 7 10 15 0 8 -4 15 -10 15 -5 0 -10 -7 -10 -15z"/> <path d="M6653 5735 c-3 -9 -3 -18 0 -21 9 -9 27 6 27 22 0 19 -19 18 -27 -1z"/> <path d="M6603 5663 c-7 -2 -13 -10 -13 -17 0 -6 -20 -34 -45 -63 -25 -28 -45 -54 -45 -56 0 -3 -13 -21 -30 -39 -16 -18 -30 -38 -30 -45 0 -6 -6 -16 -13 -20 -7 -4 -21 -25 -32 -47 -11 -21 -26 -40 -32 -43 -7 -3 -13 -11 -13 -18 0 -7 -7 -15 -15 -19 -17 -6 -20 -26 -5 -26 15 0 67 55 75 79 3 12 10 21 15 21 5 0 11 9 15 19 3 11 19 34 36 52 16 17 29 38 29 45 0 8 7 17 15 20 8 4 15 10 15 15 0 4 11 20 25 35 14 15 28 38 31 51 4 13 12 23 20 23 8 0 14 9 14 20 0 11 -1 20 -2 19 -2 0 -9 -3 -15 -6z"/> <path d="M4287 5544 c-4 -4 -7 -19 -7 -33 0 -14 -7 -35 -15 -45 -8 -11 -15 -31 -15 -45 0 -24 -13 -71 -42 -156 -6 -16 -12 -43 -15 -60 -3 -16 -11 -44 -19 -62 -8 -17 -14 -45 -14 -63 0 -17 -7 -38 -15 -46 -8 -9 -15 -31 -15 -49 0 -19 -4 -36 -9 -39 -4 -3 -11 -24 -15 -46 -3 -23 -11 -49 -16 -58 -5 -9 -14 -42 -19 -72 -14 -77 -34 -154 -41 -160 -4 -3 -10 -24 -14 -47 -5 -35 -3 -43 9 -43 8 0 15 8 15 18 0 10 7 27 15 38 8 10 15 33 15 50 0 17 7 48 15 67 8 20 15 47 15 61 0 13 7 37 15 52 8 16 15 51 15 77 0 32 5 49 15 53 8 3 17 26 21 52 3 26 12 54 20 62 7 8 12 31 12 50 -1 18 4 36 10 38 7 2 12 17 12 34 0 17 8 49 19 72 25 56 41 108 41 137 0 13 7 36 14 51 28 52 22 140 -7 112z"/> <path d="M4982 5321 c-11 -7 -10 -10 3 -15 20 -7 38 1 30 15 -7 11 -16 11 -33 0z"/> <path d="M4984 5256 c-3 -9 -3 -24 1 -33 6 -17 7 -17 21 2 8 10 13 24 11 29 -6 17 -27 18 -33 2z"/> <path d="M6296 5243 c-3 -3 -6 -15 -6 -25 0 -10 -4 -18 -10 -18 -5 0 -10 -5 -10 -10 0 -15 49 22 50 37 0 14 -15 25 -24 16z"/> <path d="M4990 5180 c-11 -7 -12 -15 -5 -36 15 -42 35 -42 35 0 0 39 -9 49 -30 36z"/> <path d="M6237 5164 c-3 -3 -3 -13 0 -21 5 -12 7 -12 14 -1 15 23 4 40 -14 22z"/> <path d="M6484 5133 c-10 -21 -25 -42 -31 -46 -7 -4 -13 -15 -13 -23 0 -9 -20 -42 -45 -74 -25 -32 -45 -62 -45 -65 0 -4 -13 -24 -28 -44 -24 -31 -52 -83 -52 -96 0 -3 11 1 25 7 14 6 25 17 25 23 0 7 14 31 30 54 72 99 120 173 120 185 0 8 7 19 16 26 12 11 44 72 44 86 0 2 -6 4 -13 4 -8 0 -22 -17 -33 -37z"/> <path d="M8294 5104 c-12 -66 -9 -178 5 -213 16 -37 82 -74 110 -63 85 35 161 121 161 181 0 39 -44 81 -85 81 -31 0 -84 17 -122 38 -41 23 -61 15 -69 -24z m141 -80 c14 -9 21 -22 18 -30 -8 -20 -41 -17 -53 5 -22 42 -7 53 35 25z"/> <path d="M6207 5123 c-13 -12 -7 -33 8 -33 8 0 15 9 15 20 0 20 -11 26 -23 13z"/> <path d="M2067 5074 c-10 -10 -9 -52 2 -58 5 -3 11 1 15 9 7 18 -7 59 -17 49z"/> <path d="M6170 5067 c0 -7 -13 -26 -30 -42 -30 -28 -39 -55 -20 -55 20 0 80 73 80 97 0 7 -7 13 -15 13 -8 0 -15 -6 -15 -13z"/> <path d="M4976 4978 c-5 -22 17 -58 29 -47 7 8 -6 69 -15 69 -4 0 -10 -10 -14 -22z"/> <path d="M2095 4967 c-4 -9 -4 -29 0 -44 6 -25 8 -26 16 -10 7 11 7 27 1 45 -8 23 -11 24 -17 9z"/> <path d="M6080 4950 c0 -5 7 -10 15 -10 8 0 15 5 15 10 0 6 -7 10 -15 10 -8 0 -15 -4 -15 -10z"/> <path d="M4257 4912 c-8 -12 -4 -82 5 -82 4 0 8 6 8 14 0 7 3 28 6 45 6 28 -7 44 -19 23z"/> <path d="M6055 4910 c-4 -6 -3 -16 3 -22 6 -6 12 -6 17 2 4 6 3 16 -3 22 -6 6 -12 6 -17 -2z"/> <path d="M2125 4868 c-4 -10 -4 -26 0 -35 8 -17 8 -17 12 0 3 9 3 25 0 35 -4 16 -4 16 -12 0z"/> <path d="M5182 4864 c1 -9 9 -19 16 -22 9 -3 13 2 10 14 -1 9 -9 19 -16 22 -9 3 -13 -2 -10 -14z"/> <path d="M2893 4822 c-9 -16 -7 -24 13 -48 13 -16 23 -37 24 -46 0 -9 12 -30 26 -45 l27 -28 -7 30 c-4 17 -11 50 -16 74 -9 40 -34 81 -49 81 -3 0 -11 -8 -18 -18z"/> <path d="M5220 4805 c0 -15 4 -24 10 -20 6 3 10 12 10 20 0 8 -4 17 -10 20 -6 4 -10 -5 -10 -20z"/> <path d="M2150 4762 c0 -16 7 -37 15 -48 8 -10 15 -33 15 -51 0 -17 5 -35 10 -38 19 -12 23 25 7 68 -8 23 -18 54 -21 70 -8 35 -26 35 -26 -1z"/> <path d="M4974 4735 c-9 -22 24 -51 40 -35 7 7 3 17 -11 32 -21 20 -23 21 -29 3z"/> <path d="M6046 4735 c-11 -8 -16 -18 -12 -22 3 -4 16 3 29 15 24 25 12 29 -17 7z"/> <path d="M4989 4668 c-8 -31 -7 -128 2 -145 9 -16 9 -26 1 -35 -7 -9 -7 -19 -2 -28 13 -20 13 -83 0 -96 -10 -10 8 -74 20 -74 11 0 11 241 0 276 -10 28 -10 38 0 44 15 9 9 52 -7 58 -7 2 -13 2 -14 0z"/> <path d="M2212 4568 c4 -49 28 -66 28 -20 0 37 -9 62 -22 62 -5 0 -8 -19 -6 -42z"/> <path d="M2940 4591 c0 -6 5 -13 10 -16 6 -3 10 -17 10 -29 0 -13 9 -35 21 -50 11 -14 18 -30 14 -35 -3 -6 -1 -18 4 -28 5 -10 15 -33 21 -50 7 -18 15 -33 19 -33 10 0 4 99 -7 113 -5 7 -12 28 -16 47 -4 19 -18 47 -31 63 -24 27 -45 35 -45 18z"/> <path d="M3896 4535 c-8 -49 0 -77 15 -54 11 18 11 99 0 99 -5 0 -12 -20 -15 -45z"/> <path d="M7718 4536 c-19 -14 -40 -82 -42 -136 -2 -56 27 -51 90 14 55 57 69 97 42 124 -16 16 -68 15 -90 -2z"/> <path d="M4122 4517 c-14 -17 2 -42 22 -34 20 8 21 47 2 47 -7 0 -18 -6 -24 -13z"/> <path d="M2242 4473 c3 -42 28 -59 28 -20 0 32 -9 57 -22 57 -5 0 -8 -17 -6 -37z"/> <path d="M3986 4494 c-10 -26 -7 -44 8 -44 20 0 29 16 21 40 -8 24 -21 26 -29 4z"/> <path d="M5914 4475 c5 -11 11 -42 13 -70 3 -27 9 -54 13 -60 4 -5 13 -26 18 -45 6 -19 20 -60 32 -90 12 -30 24 -66 27 -78 10 -44 63 -127 207 -327 78 -107 128 -176 139 -190 32 -41 97 -134 145 -205 31 -47 59 -87 62 -90 13 -12 54 -78 94 -152 34 -63 102 -156 134 -181 12 -10 29 -25 37 -33 23 -23 18 -1 -5 24 -11 12 -20 27 -20 35 0 7 -13 28 -28 45 -15 17 -38 50 -51 74 -30 57 -80 136 -113 181 -16 19 -28 38 -28 42 0 7 -80 124 -121 176 -16 20 -29 40 -29 44 0 9 -63 99 -72 103 -4 2 -17 23 -29 48 -13 24 -25 44 -28 44 -3 0 -19 23 -36 51 -16 28 -40 66 -52 85 -34 52 -73 124 -73 134 0 5 -13 28 -29 52 -35 52 -121 227 -121 245 0 21 -57 128 -76 144 -16 13 -17 12 -10 -6z"/> <path d="M3865 4430 c-9 -28 4 -68 16 -49 12 19 11 69 0 69 -5 0 -13 -9 -16 -20z"/> <path d="M3956 4424 c-11 -30 -7 -54 9 -48 9 4 15 19 15 35 0 31 -14 39 -24 13z"/> <path d="M2270 4383 c0 -23 6 -48 14 -56 8 -8 16 -29 18 -47 2 -19 9 -35 16 -38 18 -6 15 53 -3 68 -8 7 -15 27 -15 44 0 18 -7 41 -15 52 -13 18 -14 16 -15 -23z"/> <path d="M3836 4321 c-3 -22 -3 -47 1 -57 6 -16 7 -16 14 2 11 27 11 94 0 94 -5 0 -11 -18 -15 -39z"/> <path d="M3926 4344 c-3 -9 -6 -27 -6 -41 0 -39 25 -22 28 20 3 37 -11 50 -22 21z"/> <path d="M4980 4261 c0 -6 4 -12 9 -16 5 -3 7 -21 4 -40 -4 -23 -2 -35 6 -35 12 0 14 41 5 78 -6 21 -24 31 -24 13z"/> <path d="M3896 4244 c-10 -27 -7 -56 7 -52 14 5 23 68 9 68 -6 0 -13 -7 -16 -16z"/> <path d="M3870 4155 c0 -15 4 -24 10 -20 6 3 10 12 10 20 0 8 -4 17 -10 20 -6 4 -10 -5 -10 -20z"/> <path d="M4977 4082 c-6 -60 -3 -92 15 -129 8 -16 8 -26 0 -35 -7 -10 -5 -19 9 -37 l19 -23 0 75 c0 51 -4 77 -12 80 -10 3 -10 11 0 39 20 56 12 88 -22 88 -2 0 -6 -26 -9 -58z"/> <path d="M3995 4120 c-3 -5 3 -10 14 -10 12 0 21 5 21 10 0 6 -6 10 -14 10 -8 0 -18 -4 -21 -10z"/> <path d="M3833 4059 c-5 -26 -9 -30 -28 -25 -20 5 -24 1 -30 -32 -4 -20 -11 -42 -16 -48 -5 -6 -13 -55 -19 -110 -6 -54 -15 -113 -20 -129 -6 -17 -11 -49 -13 -72 -1 -24 -8 -48 -15 -55 -7 -7 -12 -30 -12 -52 0 -23 -7 -50 -15 -60 -8 -11 -15 -32 -15 -47 0 -15 -5 -40 -11 -56 -6 -15 -13 -52 -15 -82 -3 -30 -9 -60 -13 -65 -13 -15 -17 -106 -6 -106 6 0 11 21 13 47 2 27 8 53 15 58 12 9 24 59 46 193 5 29 14 58 19 65 5 7 13 28 17 47 6 30 26 100 43 150 12 33 34 128 42 180 19 117 27 151 43 168 19 20 23 62 7 62 -6 0 -13 -14 -17 -31z"/> <path d="M3930 4028 c0 -36 4 -35 14 5 4 16 2 27 -4 27 -5 0 -10 -14 -10 -32z"/> <path d="M5997 3974 c-8 -9 -7 -568 2 -669 5 -64 7 -68 19 -47 7 12 10 27 7 32 -3 5 1 23 10 41 17 32 25 195 11 218 -4 6 -2 34 5 62 10 40 10 56 0 85 -15 41 -1 68 30 59 10 -4 21 1 27 11 8 14 12 13 35 -10 15 -15 27 -31 27 -36 0 -6 5 -10 10 -10 17 0 13 8 -55 108 -78 118 -118 166 -128 156z"/> <path d="M4992 3828 c-18 -18 -15 -28 8 -28 13 0 20 7 20 20 0 23 -10 26 -28 8z"/> <path d="M2580 3800 c0 -11 5 -20 10 -20 6 0 10 9 10 20 0 11 -4 20 -10 20 -5 0 -10 -9 -10 -20z"/> <path d="M4980 3745 c0 -29 15 -33 29 -6 11 20 5 31 -16 31 -7 0 -13 -11 -13 -25z"/> <path d="M2220 3694 c0 -9 5 -14 12 -12 18 6 21 28 4 28 -9 0 -16 -7 -16 -16z"/> <path d="M4984 3654 c14 -38 17 -62 7 -68 -12 -8 -15 -46 -3 -46 4 0 15 23 25 51 14 39 16 53 6 65 -16 20 -43 18 -35 -2z"/> <path d="M2272 3648 c-11 -14 6 -88 20 -88 11 0 10 72 -1 88 -6 11 -10 11 -19 0z"/> <path d="M1407 3553 c-21 -21 -37 -46 -37 -59 0 -13 -7 -42 -16 -64 -21 -51 -12 -90 20 -90 25 0 141 83 174 125 24 30 18 61 -21 101 -34 36 -76 32 -120 -13z"/> <path d="M2305 3530 c-4 -6 -3 -16 3 -22 6 -6 12 -6 17 2 4 6 3 16 -3 22 -6 6 -12 6 -17 -2z"/> <path d="M3817 3513 c-15 -14 -7 -43 12 -43 24 0 33 13 25 34 -6 16 -25 21 -37 9z"/> <path d="M4978 3478 c-9 -23 1 -171 12 -182 18 -18 25 4 29 85 2 53 -1 84 -9 94 -15 18 -26 19 -32 3z"/> <path d="M3742 3338 c-18 -18 -14 -38 8 -38 15 0 20 7 20 25 0 27 -9 32 -28 13z"/> <path d="M5250 3270 c0 -11 5 -20 10 -20 6 0 10 9 10 20 0 11 -4 20 -10 20 -5 0 -10 -9 -10 -20z"/> <path d="M3740 3245 c0 -8 7 -15 15 -15 8 0 15 7 15 15 0 8 -7 15 -15 15 -8 0 -15 -7 -15 -15z"/> <path d="M2421 3203 c1 -10 4 -29 8 -43 l7 -25 8 23 c8 25 0 62 -15 62 -5 0 -9 -8 -8 -17z"/> <path d="M4990 3202 c0 -10 -5 -23 -11 -29 -14 -14 -5 -43 14 -43 13 0 37 39 37 60 0 5 -9 14 -20 20 -17 9 -20 8 -20 -8z"/> <path d="M3690 3185 c0 -8 5 -15 10 -15 6 0 10 7 10 15 0 8 -4 15 -10 15 -5 0 -10 -7 -10 -15z"/> <path d="M3660 3065 c0 -8 7 -15 15 -15 8 0 15 -5 15 -12 0 -6 3 -9 6 -6 8 8 -14 48 -26 48 -6 0 -10 -7 -10 -15z"/> <path d="M3570 3051 c0 -12 5 -21 10 -21 6 0 10 6 10 14 0 8 -4 18 -10 21 -5 3 -10 -3 -10 -14z"/> <path d="M4974 2994 c-8 -31 12 -57 26 -34 5 8 10 25 10 38 0 31 -28 28 -36 -4z"/> <path d="M3650 2970 c0 -5 7 -10 15 -10 8 0 15 5 15 10 0 6 -7 10 -15 10 -8 0 -15 -4 -15 -10z"/> <path d="M3634 2922 c-18 -12 -27 -62 -11 -62 19 0 59 39 54 53 -5 15 -28 20 -43 9z"/> <path d="M4977 2895 c-4 -9 -1 -18 9 -22 22 -8 30 5 12 23 -14 14 -16 14 -21 -1z"/> <path d="M2500 2896 c0 -3 4 -15 9 -28 5 -13 12 -31 15 -41 3 -10 11 -15 16 -12 8 5 8 11 0 20 -5 7 -9 23 -8 36 2 15 -3 24 -14 27 -10 2 -18 1 -18 -2z"/> <path d="M6890 2866 c0 -7 7 -19 15 -26 8 -7 15 -17 15 -22 0 -6 12 -27 28 -47 33 -44 47 -67 66 -106 20 -40 41 -65 55 -65 18 0 14 12 -24 69 -19 29 -35 55 -35 58 0 3 -13 22 -28 42 -16 20 -32 44 -35 54 -4 9 -10 17 -16 17 -5 0 -11 9 -14 20 -6 23 -27 27 -27 6z"/> <path d="M4975 2789 c-10 -43 8 -58 30 -25 19 28 14 56 -9 56 -8 0 -17 -14 -21 -31z"/> <path d="M3595 2791 c-6 -11 9 -23 19 -14 9 9 7 23 -3 23 -6 0 -12 -4 -16 -9z"/> <path d="M4985 2691 c-7 -13 12 -51 25 -51 6 0 10 8 10 19 0 23 -25 46 -35 32z"/> <path d="M3326 2674 c-3 -9 -2 -23 4 -32 7 -14 9 -10 10 16 0 35 -5 41 -14 16z"/> <path d="M4984 2589 c-10 -17 13 -36 27 -22 12 12 4 33 -11 33 -5 0 -12 -5 -16 -11z"/> <path d="M5310 2578 c0 -7 5 -20 10 -28 8 -12 10 -11 10 7 0 12 -4 25 -10 28 -5 3 -10 0 -10 -7z"/> <path d="M8349 2514 c-29 -15 -107 -102 -184 -204 -27 -36 -54 -69 -61 -75 -18 -16 -215 -283 -265 -360 -55 -84 -81 -152 -77 -197 5 -52 36 -49 95 9 42 41 113 141 113 159 0 3 12 23 28 43 30 40 47 67 62 96 6 11 19 34 30 50 11 17 24 39 29 50 17 38 90 112 148 151 71 47 170 145 184 181 14 36 2 78 -26 97 -28 19 -41 19 -76 0z"/> <path d="M4972 2457 c-16 -20 -23 -55 -12 -62 11 -7 14 -58 3 -69 -4 -4 -9 -39 -11 -78 -2 -40 -7 -80 -13 -89 -13 -25 -11 -85 4 -97 14 -12 105 2 121 18 17 17 43 11 59 -12 l15 -23 11 27 c9 24 14 27 41 22 18 -4 30 -2 30 4 0 15 -28 23 -56 16 -13 -3 -31 -1 -38 6 -11 8 -20 8 -34 1 -15 -8 -23 -7 -32 4 -7 9 -20 13 -29 10 -23 -7 -46 76 -31 106 8 13 7 30 -1 58 -10 32 -9 44 5 72 11 22 13 36 6 43 -5 5 -10 18 -10 27 0 23 -15 32 -28 16z"/> <path d="M1358 2288 c-32 -32 -66 -133 -52 -156 13 -20 249 -131 282 -132 15 0 31 13 50 40 15 22 35 42 45 45 43 15 9 74 -63 107 -107 50 -127 60 -145 71 -10 7 -25 18 -33 25 -7 6 -17 12 -22 12 -5 0 -15 3 -24 6 -9 3 -25 -4 -38 -18z"/> <path d="M6720 2171 c0 -5 5 -13 10 -16 6 -3 10 -19 10 -34 0 -15 5 -32 12 -39 17 -17 59 -15 83 4 19 15 19 16 2 29 -10 7 -26 11 -37 8 -12 -3 -22 2 -29 16 -13 23 -51 47 -51 32z"/> <path d="M2654 2136 c-9 -24 15 -57 39 -54 12 1 40 -2 61 -6 32 -7 41 -6 52 9 19 26 9 35 -39 35 -23 0 -51 7 -61 15 -25 19 -45 19 -52 1z"/> <path d="M2383 1298 c-26 -12 -66 -101 -58 -128 3 -10 15 -22 25 -25 39 -12 167 -103 218 -156 30 -30 72 -80 93 -111 31 -46 45 -58 66 -58 33 0 90 35 98 60 12 37 -92 152 -225 250 -19 14 -70 59 -114 101 -71 67 -84 75 -103 67z"/> <path d="M7748 553 c-18 -20 -37 -90 -31 -110 8 -24 44 -13 88 28 45 41 61 89 31 89 -7 0 -27 3 -42 6 -21 4 -34 0 -46 -13z"/> </g> </svg> 